<mxfile host="app.diagrams.net" agent="Mozilla/5.0 (Windows NT 10.0; Win64; x64) AppleWebKit/537.36 (KHTML, like Gecko) Chrome/139.0.0.0 Safari/537.36" version="28.1.1">
  <diagram name="ZenMarket AI Brain Map" id="0">
    <mxGraphModel dx="1330" dy="465" grid="1" gridSize="10" guides="1" tooltips="1" connect="1" arrows="1" fold="1" page="1" pageScale="1" pageWidth="850" pageHeight="1100" math="0" shadow="0">
      <root>
        <mxCell id="0" />
        <mxCell id="1" parent="0" />
        <mxCell id="2" value="Stage 1: Data Ingestion (Snowflake)" style="shape=rectangle;rounded=1;whiteSpace=wrap;html=1;fillColor=#dae8fc;strokeColor=#6c8ebf;" parent="1" vertex="1">
          <mxGeometry x="80" y="100" width="140" height="60" as="geometry" />
        </mxCell>
        <mxCell id="3" value="Stage 2: Forecast Engine" style="shape=rectangle;rounded=1;whiteSpace=wrap;html=1;fillColor=#dae8fc;strokeColor=#6c8ebf;" parent="1" vertex="1">
          <mxGeometry x="280" y="100" width="140" height="60" as="geometry" />
        </mxCell>
        <mxCell id="4" value="Stage 3: Post-Mortem Discipline" style="shape=rectangle;rounded=1;whiteSpace=wrap;html=1;fillColor=#dae8fc;strokeColor=#6c8ebf;" parent="1" vertex="1">
          <mxGeometry x="480" y="100" width="140" height="60" as="geometry" />
        </mxCell>
        <mxCell id="5" value="Stage 4: Zen Council Deep Learning" style="shape=rectangle;rounded=1;whiteSpace=wrap;html=1;fillColor=#dae8fc;strokeColor=#6c8ebf;" parent="1" vertex="1">
          <mxGeometry x="680" y="100" width="140" height="60" as="geometry" />
        </mxCell>
        <mxCell id="6" value="Stage 5: Distribution" style="shape=rectangle;rounded=1;whiteSpace=wrap;html=1;fillColor=#dae8fc;strokeColor=#6c8ebf;" parent="1" vertex="1">
          <mxGeometry x="880" y="100" width="140" height="60" as="geometry" />
        </mxCell>
        <mxCell id="7" value="Stage 6: Zen Grid Charting" style="shape=rectangle;rounded=1;whiteSpace=wrap;html=1;fillColor=#dae8fc;strokeColor=#6c8ebf;" parent="1" vertex="1">
          <mxGeometry x="80" y="250" width="140" height="60" as="geometry" />
        </mxCell>
        <mxCell id="8" value="Stage 7: Expanded Data (Options &amp; Macro/News)" style="shape=rectangle;rounded=1;whiteSpace=wrap;html=1;fillColor=#dae8fc;strokeColor=#6c8ebf;" parent="1" vertex="1">
          <mxGeometry x="280" y="250" width="140" height="60" as="geometry" />
        </mxCell>
        <mxCell id="9" value="Stage 8: Integration &amp; Automation" style="shape=rectangle;rounded=1;whiteSpace=wrap;html=1;fillColor=#dae8fc;strokeColor=#6c8ebf;" parent="1" vertex="1">
          <mxGeometry x="480" y="250" width="140" height="60" as="geometry" />
        </mxCell>
        <mxCell id="10" value="Stage 9: Beta Testing (Capstone)" style="shape=rectangle;rounded=1;whiteSpace=wrap;html=1;fillColor=#dae8fc;strokeColor=#6c8ebf;" parent="1" vertex="1">
          <mxGeometry x="680" y="250" width="140" height="60" as="geometry" />
        </mxCell>
        <mxCell id="1000" style="endArrow=block;html=1;strokeColor=#000000;" parent="1" source="2" target="3" edge="1">
          <mxGeometry relative="1" as="geometry" />
        </mxCell>
        <mxCell id="1001" style="endArrow=block;html=1;strokeColor=#000000;" parent="1" source="3" target="4" edge="1">
          <mxGeometry relative="1" as="geometry" />
        </mxCell>
        <mxCell id="1002" style="endArrow=block;html=1;strokeColor=#000000;" parent="1" source="4" target="5" edge="1">
          <mxGeometry relative="1" as="geometry" />
        </mxCell>
        <mxCell id="1003" style="endArrow=block;html=1;strokeColor=#000000;" parent="1" source="5" target="6" edge="1">
          <mxGeometry relative="1" as="geometry" />
        </mxCell>
        <mxCell id="1004" style="endArrow=block;html=1;strokeColor=#000000;" parent="1" source="6" target="7" edge="1">
          <mxGeometry relative="1" as="geometry" />
        </mxCell>
        <mxCell id="1005" style="endArrow=block;html=1;strokeColor=#000000;" parent="1" source="7" target="9" edge="1">
          <mxGeometry relative="1" as="geometry" />
        </mxCell>
        <mxCell id="1006" style="endArrow=block;html=1;strokeColor=#000000;" parent="1" source="8" target="4" edge="1">
          <mxGeometry relative="1" as="geometry" />
        </mxCell>
        <mxCell id="1007" style="endArrow=block;html=1;strokeColor=#000000;" parent="1" source="8" target="5" edge="1">
          <mxGeometry relative="1" as="geometry" />
        </mxCell>
        <mxCell id="1008" style="endArrow=block;html=1;strokeColor=#000000;" parent="1" source="8" target="9" edge="1">
          <mxGeometry relative="1" as="geometry" />
        </mxCell>
        <mxCell id="1009" style="endArrow=block;html=1;strokeColor=#000000;" parent="1" source="9" target="10" edge="1">
          <mxGeometry relative="1" as="geometry" />
        </mxCell>
      </root>
    </mxGraphModel>
  </diagram>
</mxfile>
